<svg width="14" height="15" viewBox="0 0 14 15" fill="none" xmlns="http://www.w3.org/2000/svg">
<g id="arrow-up-right-from-square-solid 1" clip-path="url(#clip0_1_20)">
<path id="Vector" d="M8.75 0.5C8.26602 0.5 7.875 0.891016 7.875 1.375C7.875 1.85898 8.26602 2.25 8.75 2.25H11.0113L5.50703 7.75703C5.16523 8.09883 5.16523 8.65391 5.50703 8.9957C5.84883 9.3375 6.40391 9.3375 6.7457 8.9957L12.25 3.48867V5.75C12.25 6.23398 12.641 6.625 13.125 6.625C13.609 6.625 14 6.23398 14 5.75V1.375C14 0.891016 13.609 0.5 13.125 0.5H8.75ZM2.1875 1.375C0.978906 1.375 0 2.35391 0 3.5625V12.3125C0 13.5211 0.978906 14.5 2.1875 14.5H10.9375C12.1461 14.5 13.125 13.5211 13.125 12.3125V9.25C13.125 8.76602 12.734 8.375 12.25 8.375C11.766 8.375 11.375 8.76602 11.375 9.25V12.3125C11.375 12.5531 11.1781 12.75 10.9375 12.75H2.1875C1.94687 12.75 1.75 12.5531 1.75 12.3125V3.5625C1.75 3.32188 1.94687 3.125 2.1875 3.125H5.25C5.73398 3.125 6.125 2.73398 6.125 2.25C6.125 1.76602 5.73398 1.375 5.25 1.375H2.1875Z" fill="#0876FD"/>
</g>
<defs>
<clipPath id="clip0_1_20">
<rect width="14" height="14" fill="white" transform="translate(0 0.5)"/>
</clipPath>
</defs>
</svg>
